<svg width="101" height="100" viewBox="0 0 101 100" fill="none" xmlns="http://www.w3.org/2000/svg">
<rect width="101" height="100" fill="#1E1E1E"/>
<rect width="101" height="100" fill="white"/>
<ellipse cx="50" cy="50.5" rx="42" ry="35.5" fill="#D9D9D9"/>
<path d="M29.6561 44.696C29.2481 44.712 28.8721 44.66 28.5281 44.54C28.1921 44.428 27.9161 44.272 27.7001 44.072C27.4921 43.872 27.3601 43.64 27.3041 43.376C27.2481 43.104 27.2961 42.828 27.4481 42.548C27.6561 42.212 28.0721 42.112 28.6961 42.248C29.1681 42.344 29.4921 42.396 29.6681 42.404C29.8521 42.412 30.0081 42.388 30.1361 42.332C30.7201 42.14 31.0481 41.932 31.1201 41.708C31.1681 41.54 31.0641 41.344 30.8081 41.12C30.7041 41.024 30.5881 40.928 30.4601 40.832C30.3321 40.736 30.2241 40.64 30.1361 40.544C29.7361 40.248 29.4201 39.908 29.1881 39.524C28.9641 39.132 28.8721 38.708 28.9121 38.252C28.9521 37.796 29.0281 37.42 29.1401 37.124C29.2521 36.82 29.3921 36.552 29.5601 36.32C29.8561 35.912 30.2401 35.58 30.7121 35.324C31.2561 35.044 31.6921 34.864 32.0201 34.784C32.6681 34.64 33.3241 34.628 33.9881 34.748C34.2121 34.788 34.4041 34.864 34.5641 34.976C34.7241 35.088 34.8841 35.204 35.0441 35.324C35.3241 35.604 35.3921 35.888 35.2481 36.176C35.1921 36.304 35.1041 36.408 34.9841 36.488C34.8641 36.568 34.7361 36.612 34.6001 36.62C34.6161 36.836 34.5761 36.996 34.4801 37.1C34.2961 37.284 33.9761 37.404 33.5201 37.46C32.8641 37.412 32.4201 37.448 32.1881 37.568C31.9161 37.712 31.8161 38.024 31.8881 38.504C31.9041 38.608 31.9681 38.716 32.0801 38.828C32.2001 38.94 32.3361 39.06 32.4881 39.188C32.6481 39.316 32.8121 39.46 32.9801 39.62C33.1561 39.78 33.3081 39.964 33.4361 40.172C33.8841 40.908 33.8481 41.768 33.3281 42.752C32.9441 43.488 32.2881 44.04 31.3601 44.408C30.8801 44.6 30.3121 44.696 29.6561 44.696ZM40.7892 42.716C40.7892 43.14 40.8412 43.508 40.9452 43.82C40.9452 44.076 40.8852 44.256 40.7652 44.36C40.6452 44.472 40.4932 44.528 40.3092 44.528C40.1332 44.536 39.9452 44.5 39.7452 44.42C39.5452 44.348 39.3732 44.256 39.2292 44.144C39.0932 44.032 39.0052 43.944 38.9652 43.88C38.9252 43.808 38.8612 43.704 38.7732 43.568C38.6372 42.936 38.5732 42.524 38.5812 42.332C38.5892 42.14 38.6052 41.976 38.6292 41.84C38.2292 42.048 37.9532 42.228 37.8012 42.38C37.5212 42.66 37.2852 43.02 37.0932 43.46C37.0292 43.812 36.9772 43.996 36.9372 44.012C36.8972 44.036 36.8452 44.052 36.7812 44.06C36.7172 44.068 36.6492 44.096 36.5772 44.144C36.5052 44.192 36.4372 44.232 36.3732 44.264C36.3092 44.296 36.2452 44.328 36.1812 44.36C36.0292 44.448 35.9292 44.492 35.8812 44.492C35.4252 44.636 34.9892 44.572 34.5732 44.3C34.3972 44.18 34.2612 44.028 34.1652 43.844C34.0692 43.652 34.0452 43.448 34.0932 43.232C34.4372 41.752 34.9092 40.244 35.5092 38.708C35.8772 37.772 36.2292 37.032 36.5652 36.488C36.6452 36.36 36.7252 36.224 36.8052 36.08C36.9732 35.792 37.0892 35.596 37.1532 35.492C37.0732 35.284 37.0732 35.104 37.1532 34.952C37.2412 34.792 37.3692 34.668 37.5372 34.58C37.7132 34.484 37.9132 34.42 38.1372 34.388C38.3612 34.356 38.5732 34.352 38.7732 34.376C39.2532 34.448 39.5092 34.636 39.5412 34.94C39.4932 35.084 39.4252 35.256 39.3372 35.456C39.2572 35.656 39.1732 35.86 39.0852 36.068C39.0052 36.268 38.9252 36.456 38.8452 36.632C38.7732 36.808 38.7172 36.94 38.6772 37.028C38.6452 37.108 38.5932 37.252 38.5212 37.46C38.4572 37.66 38.3852 37.88 38.3052 38.12C38.2332 38.352 38.1652 38.568 38.1012 38.768L37.9572 39.188C37.9252 39.3 37.8732 39.472 37.8012 39.704C37.7292 39.928 37.6532 40.208 37.5732 40.544C37.6772 40.464 37.7612 40.372 37.8252 40.268C37.8972 40.156 37.9972 40.032 38.1252 39.896C38.2612 39.76 38.4332 39.628 38.6412 39.5C38.8572 39.364 39.0852 39.276 39.3252 39.236C39.8452 39.148 40.3172 39.316 40.7412 39.74C41.0612 40.06 41.1612 40.54 41.0412 41.18C40.9932 41.444 40.9332 41.712 40.8612 41.984C40.7972 42.248 40.7732 42.492 40.7892 42.716ZM46.871 38.852L46.919 38.864C46.935 38.864 46.943 38.868 46.943 38.876C47.151 38.796 47.323 38.856 47.459 39.056C47.547 39.192 47.615 39.4 47.663 39.68C47.679 40.064 47.639 40.596 47.543 41.276C47.359 42.652 47.259 43.472 47.243 43.736C47.259 44.016 47.087 44.208 46.727 44.312C46.415 44.408 46.103 44.404 45.791 44.3C45.463 44.188 45.327 44.016 45.383 43.784C45.319 43.904 45.255 43.988 45.191 44.036C45.127 44.092 44.999 44.164 44.807 44.252C44.623 44.348 44.359 44.424 44.015 44.48C43.671 44.544 43.327 44.56 42.983 44.528C42.639 44.504 42.323 44.42 42.035 44.276C41.755 44.14 41.567 43.924 41.471 43.628C41.287 43.052 41.311 42.32 41.543 41.432C41.703 40.848 41.991 40.332 42.407 39.884C42.887 39.372 43.431 38.948 44.039 38.612C44.495 38.364 44.935 38.216 45.359 38.168C45.503 38.152 45.627 38.156 45.731 38.18C45.843 38.204 45.959 38.228 46.079 38.252C46.207 38.276 46.327 38.312 46.439 38.36C46.727 38.48 46.871 38.644 46.871 38.852ZM44.651 42.032C44.707 41.92 44.751 41.78 44.783 41.612C44.823 41.444 44.875 41.26 44.939 41.06C44.291 41.324 43.795 41.648 43.451 42.032C43.075 42.456 43.099 42.748 43.523 42.908C43.891 43.004 44.159 42.944 44.327 42.728C44.399 42.632 44.463 42.512 44.519 42.368C44.575 42.224 44.643 42.076 44.723 41.924C44.699 41.964 44.675 42 44.651 42.032ZM50.1726 34.58C50.3486 34.364 50.5606 34.244 50.8086 34.22C51.0566 34.196 51.2966 34.236 51.5286 34.34C51.7606 34.436 51.9566 34.588 52.1166 34.796C52.2846 34.996 52.3766 35.22 52.3926 35.468L52.2846 35.816C52.3726 35.92 52.4486 36.004 52.5126 36.068C52.5846 36.132 52.6246 36.232 52.6326 36.368C52.6806 36.48 52.4806 36.924 52.0326 37.7C51.8486 38.02 51.6526 38.356 51.4446 38.708C51.2446 39.052 51.0806 39.36 50.9526 39.632C51.0486 39.608 51.1446 39.588 51.2406 39.572C51.3366 39.556 51.4326 39.536 51.5286 39.512C52.1206 39.36 52.5206 39.284 52.7286 39.284C52.9366 39.276 53.1086 39.296 53.2446 39.344C53.6126 39.488 53.8046 39.712 53.8206 40.016C53.7086 40.28 53.2886 40.648 52.5606 41.12C52.3926 41.224 52.2566 41.312 52.1526 41.384L51.1086 42.128C51.0526 42.216 51.0126 42.3 50.9886 42.38V42.392C51.0046 42.432 51.1046 42.488 51.2886 42.56C51.4806 42.632 51.6446 42.696 51.7806 42.752C52.1006 42.896 52.3846 43.092 52.6326 43.34C52.7126 43.428 52.7646 43.56 52.7886 43.736C52.8126 43.904 52.7846 44.06 52.7046 44.204C52.6326 44.348 52.5006 44.452 52.3086 44.516C52.1166 44.58 51.8486 44.552 51.5046 44.432C51.0006 44.208 50.4046 43.708 49.7166 42.932C49.6366 43.212 49.5566 43.488 49.4766 43.76C49.4046 44.024 49.3246 44.296 49.2366 44.576C49.1166 44.848 48.8366 44.976 48.3966 44.96C48.2206 44.96 48.0606 44.924 47.9166 44.852C47.7806 44.78 47.7006 44.684 47.6766 44.564C47.6126 44.388 47.5806 44.256 47.5806 44.168C47.5806 44.088 47.6006 43.992 47.6406 43.88C47.8246 43.416 47.9406 43.048 47.9886 42.776C48.0366 42.496 48.0686 42.332 48.0846 42.284C47.8606 42.14 47.7286 41.912 47.6886 41.6C47.6406 41.296 47.7126 41.024 47.9046 40.784C48.1606 40.688 48.3446 40.616 48.4566 40.568C48.5046 40.264 48.5846 39.936 48.6966 39.584C48.8966 38.952 49.0486 38.404 49.1526 37.94C49.2646 37.476 49.4206 36.952 49.6206 36.368C49.8286 35.776 50.0126 35.18 50.1726 34.58ZM56.7676 35.024L56.7796 34.976L56.8876 34.868C56.9756 34.66 57.0716 34.536 57.1756 34.496C57.2316 34.48 57.3036 34.46 57.3916 34.436C57.4796 34.412 57.5956 34.352 57.7396 34.256C57.7956 34.144 57.9116 34.096 58.0876 34.112C58.2636 34.12 58.4356 34.176 58.6036 34.28C58.7796 34.376 58.9196 34.512 59.0236 34.688C59.1356 34.864 59.1636 35.048 59.1076 35.24C59.0516 35.424 59.0036 35.564 58.9636 35.66C58.9316 35.748 58.8956 35.832 58.8556 35.912C58.8236 35.992 58.7796 36.084 58.7236 36.188C58.6756 36.284 58.6116 36.416 58.5316 36.584L58.1356 37.412C58.0956 37.516 58.0596 37.576 58.0276 37.592C58.0036 37.608 57.9796 37.636 57.9556 37.676C58.0276 37.66 58.0876 37.648 58.1356 37.64C58.1836 37.632 58.2316 37.624 58.2796 37.616C58.3916 37.6 58.5196 37.584 58.6636 37.568C58.7516 37.584 58.8276 37.592 58.8916 37.592H59.0596C59.1556 37.592 59.2716 37.62 59.4076 37.676C59.5436 37.724 59.6316 37.812 59.6716 37.94C59.7116 38.068 59.7156 38.2 59.6836 38.336C59.6516 38.464 59.5876 38.584 59.4916 38.696C59.3956 38.808 59.2716 38.868 59.1196 38.876C58.4236 39.068 57.9276 39.172 57.6316 39.188L57.5596 39.272V39.284C57.4796 39.476 57.3916 39.72 57.2956 40.016C57.2076 40.304 57.1076 40.62 56.9956 40.964C56.8916 41.3 56.7836 41.652 56.6716 42.02C56.5596 42.38 56.4436 42.728 56.3236 43.064C55.9396 44.192 55.6596 44.804 55.4836 44.9C55.4196 44.932 55.3516 44.952 55.2796 44.96C55.2156 44.976 55.1796 44.988 55.1716 44.996C54.8916 44.98 54.6596 44.924 54.4756 44.828C54.2916 44.732 54.1676 44.64 54.1036 44.552C54.0396 44.464 54.0236 44.364 54.0556 44.252C54.2076 42.86 54.5116 41.336 54.9676 39.68C54.8076 39.68 54.6956 39.696 54.6316 39.728C54.5116 39.792 54.3676 39.828 54.1996 39.836H54.1876C54.0596 39.828 53.9436 39.768 53.8396 39.656C53.7356 39.544 53.6716 39.416 53.6476 39.272C53.6236 39.128 53.6476 38.98 53.7196 38.828C53.7916 38.676 53.9356 38.556 54.1516 38.468C54.4076 38.396 54.5956 38.336 54.7156 38.288C54.9476 38.192 55.1396 38.124 55.2916 38.084C55.4516 38.044 55.5396 38.02 55.5556 38.012C55.5796 37.996 55.5956 37.984 55.6036 37.976C55.6276 37.96 55.6876 37.952 55.7836 37.952C55.8316 37.72 55.8796 37.484 55.9276 37.244C55.9756 37.004 56.0356 36.76 56.1076 36.512C56.2676 35.936 56.4876 35.44 56.7676 35.024ZM60.3262 38.804C60.4302 38.54 60.6782 38.36 61.0702 38.264C61.4382 38.168 61.7822 38.18 62.1022 38.3C62.4302 38.428 62.5782 38.636 62.5462 38.924C62.4582 39.204 62.3462 39.548 62.2102 39.956C62.0822 40.356 61.9582 40.768 61.8382 41.192C61.5182 42.28 61.3342 43.048 61.2862 43.496C61.1662 44.216 60.9662 44.604 60.6862 44.66C60.6062 44.676 60.5302 44.688 60.4582 44.696C60.2822 44.704 60.1702 44.752 60.1222 44.84C60.0742 44.928 59.9942 44.992 59.8822 45.032C59.7702 45.08 59.6462 45.1 59.5102 45.092C59.3822 45.092 59.2502 45.06 59.1142 44.996C58.9782 44.94 58.8622 44.856 58.7662 44.744C58.5422 44.472 58.4982 44.108 58.6342 43.652C58.7622 42.78 59.0862 41.672 59.6062 40.328C59.8542 39.664 60.0942 39.156 60.3262 38.804ZM62.5942 37.004C62.2022 37.084 61.8822 37.06 61.6342 36.932C61.3942 36.804 61.2542 36.652 61.2142 36.476C61.1742 36.292 61.2302 36.104 61.3822 35.912C61.5582 35.672 61.8222 35.516 62.1742 35.444C62.3342 35.428 62.4502 35.42 62.5222 35.42C62.5942 35.42 62.6822 35.436 62.7862 35.468C63.0502 35.492 63.2222 35.608 63.3022 35.816C63.4142 35.992 63.4222 36.192 63.3262 36.416C63.2382 36.64 62.9942 36.836 62.5942 37.004ZM41.6641 53.952L41.7121 53.964C41.9121 54.084 42.0841 54.22 42.2281 54.372C42.3801 54.516 42.5161 54.672 42.6361 54.84C42.7641 55 42.8641 55.176 42.9361 55.368C43.2401 56.104 42.9761 56.928 42.1441 57.84C41.7921 58.224 41.3961 58.552 40.9561 58.824C41.0681 58.904 41.1721 58.964 41.2681 59.004C41.3721 59.036 41.5161 59.104 41.7001 59.208C41.8841 59.304 42.0041 59.492 42.0601 59.772C42.1161 60.044 42.1001 60.352 42.0121 60.696C41.9321 61.04 41.7801 61.396 41.5561 61.764C41.3401 62.124 41.0561 62.448 40.7041 62.736C39.9041 63.4 38.9761 63.68 37.9201 63.576C37.7681 63.576 37.6721 63.564 37.6321 63.54C37.5921 63.516 37.5601 63.496 37.5361 63.48C37.5121 63.464 37.4601 63.452 37.3801 63.444C37.1801 63.604 36.9521 63.704 36.6961 63.744C36.4401 63.784 36.1961 63.764 35.9641 63.684C35.7401 63.604 35.5481 63.468 35.3881 63.276C35.2361 63.084 35.1601 62.832 35.1601 62.52C35.1841 62.312 35.2241 62.148 35.2801 62.028C35.2561 61.956 35.2441 61.868 35.2441 61.764C35.5161 60.316 35.7721 59.208 36.0121 58.44C36.5001 56.912 37.0281 55.76 37.5961 54.984C38.0601 54.328 38.7041 53.904 39.5281 53.712C40.3201 53.528 41.0321 53.608 41.6641 53.952ZM37.9321 62.328C38.0281 62.304 38.1081 62.3 38.1721 62.316C38.2441 62.324 38.3281 62.32 38.4241 62.304C38.6561 62.28 38.9681 62.136 39.3601 61.872C39.6081 61.624 39.7401 61.38 39.7561 61.14C39.7721 60.9 39.7361 60.748 39.6481 60.684C39.5601 60.612 39.4401 60.576 39.2881 60.576C39.1441 60.576 38.9801 60.6 38.7961 60.648C38.6201 60.688 38.4481 60.712 38.2801 60.72V60.744C38.2401 60.904 38.2001 61.044 38.1601 61.164C38.1201 61.284 38.0841 61.4 38.0521 61.512C37.9801 61.776 37.9241 62.048 37.8841 62.328H37.9321ZM40.1641 56.088C39.9241 56.056 39.6641 56.244 39.3841 56.652C39.2081 56.908 39.0721 57.296 38.9761 57.816C39.1441 57.744 39.3081 57.684 39.4681 57.636C39.6361 57.58 39.7921 57.52 39.9361 57.456C40.2881 57.304 40.5401 57.12 40.6921 56.904C40.8681 56.696 40.9241 56.52 40.8601 56.376C40.7641 56.248 40.6081 56.132 40.3921 56.028C40.3281 56.084 40.2521 56.104 40.1641 56.088ZM39.9841 56.04H40.0201H39.9841ZM44.6997 62.532C44.6517 62.7 44.5957 62.848 44.5317 62.976C44.4677 63.104 44.3717 63.224 44.2437 63.336C44.1157 63.448 43.9637 63.552 43.7877 63.648C43.6117 63.752 43.4437 63.824 43.2837 63.864C42.9157 63.944 42.7237 63.836 42.7077 63.54C42.6837 63.46 42.6317 63.412 42.5517 63.396C42.4797 63.388 42.4117 63.368 42.3477 63.336C42.1797 63.264 42.1317 63.068 42.2037 62.748C42.3317 62.308 42.4717 61.776 42.6237 61.152C42.7757 60.52 42.9717 59.828 43.2117 59.076C43.7797 57.252 44.4837 55.608 45.3237 54.144C45.3797 54.072 45.4437 53.98 45.5157 53.868C45.5877 53.748 45.6797 53.64 45.7917 53.544C46.0717 53.288 46.4157 53.228 46.8237 53.364C46.8157 53.468 46.8397 53.564 46.8957 53.652C46.9517 53.732 47.0157 53.816 47.0877 53.904C47.2717 54.112 47.3557 54.3 47.3397 54.468C46.4917 56.476 45.7277 58.72 45.0477 61.2C44.9677 61.488 44.9037 61.74 44.8557 61.956C44.8077 62.172 44.7557 62.364 44.6997 62.532ZM47.555 57.876C47.723 57.756 47.931 57.728 48.179 57.792C48.227 57.8 48.275 57.804 48.323 57.804C48.499 57.444 48.803 57.256 49.235 57.24C49.347 57.232 49.503 57.212 49.703 57.18C49.903 57.148 50.143 57.156 50.423 57.204C50.711 57.252 50.963 57.336 51.179 57.456C51.651 57.712 51.935 58.08 52.031 58.56C52.223 59.264 52.195 60.032 51.947 60.864C51.683 61.784 51.235 62.52 50.603 63.072C50.315 63.328 50.011 63.488 49.691 63.552C49.371 63.624 49.083 63.664 48.827 63.672C48.571 63.68 48.335 63.68 48.119 63.672C47.911 63.672 47.707 63.652 47.507 63.612C47.075 63.524 46.719 63.32 46.439 63C46.111 62.64 45.971 62.08 46.019 61.32C46.051 60.648 46.219 59.972 46.523 59.292C46.835 58.604 47.179 58.132 47.555 57.876ZM49.667 60.288C49.467 60.352 49.279 60.38 49.103 60.372C49.015 60.46 48.935 60.556 48.863 60.66C48.799 60.756 48.711 60.848 48.599 60.936C48.487 61.016 48.431 61.048 48.431 61.032C48.295 61.224 48.183 61.424 48.095 61.632C48.007 61.832 48.007 62.036 48.095 62.244C48.415 62.276 48.651 62.268 48.803 62.22C48.955 62.172 49.095 62.08 49.223 61.944C49.359 61.808 49.463 61.648 49.535 61.464C49.679 61.12 49.723 60.728 49.667 60.288ZM57.208 58.212C57.344 57.964 57.524 57.84 57.748 57.84C58.092 58.032 58.308 58.344 58.396 58.776C58.484 59.208 58.388 59.596 58.108 59.94C58.1 59.948 58.104 60.016 58.12 60.144C58.264 60.944 58.212 61.776 57.964 62.64C57.876 62.928 57.772 63.196 57.652 63.444C57.54 63.692 57.396 64.004 57.22 64.38C57.052 64.756 56.812 65.128 56.5 65.496C56.188 65.864 55.836 66.156 55.444 66.372C54.62 66.836 53.7 66.936 52.684 66.672C52.316 66.528 52.06 66.36 51.916 66.168C51.732 65.936 51.668 65.688 51.724 65.424C51.78 65.096 51.972 64.916 52.3 64.884C52.46 64.868 52.66 64.928 52.9 65.064C53.172 65.12 53.392 65.116 53.56 65.052C53.728 64.988 53.86 64.928 53.956 64.872C54.06 64.824 54.188 64.76 54.34 64.68C54.604 64.544 54.904 64.232 55.24 63.744C55.424 63.488 55.608 63.144 55.792 62.712C55.496 63.088 55.024 63.272 54.376 63.264C54.192 63.256 53.984 63.248 53.752 63.24C53.528 63.232 53.324 63.156 53.14 63.012C52.956 62.868 52.808 62.68 52.696 62.448C52.584 62.216 52.508 61.952 52.468 61.656C52.436 61.352 52.436 61.044 52.468 60.732C52.596 59.644 53.052 58.784 53.836 58.152C54.372 57.712 54.948 57.476 55.564 57.444C55.86 57.428 56.14 57.46 56.404 57.54C56.724 57.66 56.992 57.884 57.208 58.212ZM55.744 60.936C55.744 60.912 55.748 60.892 55.756 60.876C55.716 60.86 55.676 60.848 55.636 60.84C55.596 60.824 55.524 60.8 55.42 60.768C55.316 60.736 55.176 60.756 55 60.828C54.824 60.892 54.668 60.984 54.532 61.104C54.404 61.216 54.3 61.336 54.22 61.464C54.148 61.592 54.136 61.7 54.184 61.788C54.24 61.876 54.336 61.912 54.472 61.896C54.608 61.872 54.756 61.812 54.916 61.716C55.268 61.5 55.544 61.24 55.744 60.936Z" fill="black"/>
</svg>
